<?xml version="1.0" encoding="UTF-8" standalone="no"?>
<!-- Created with Inkscape (http://www.inkscape.org/) -->

<svg
   xmlns:dc="http://purl.org/dc/elements/1.1/"
   xmlns:cc="http://creativecommons.org/ns#"
   xmlns:rdf="http://www.w3.org/1999/02/22-rdf-syntax-ns#"
   xmlns:svg="http://www.w3.org/2000/svg"
   xmlns="http://www.w3.org/2000/svg"
   xmlns:sodipodi="http://sodipodi.sourceforge.net/DTD/sodipodi-0.dtd"
   xmlns:inkscape="http://www.inkscape.org/namespaces/inkscape"
   id="svg2"
   version="1.1"
   inkscape:version="0.48.1 r9760"
   width="48"
   height="48.000004"
   sodipodi:docname="attack.svg">
  <metadata
     id="metadata8">
    <rdf:RDF>
      <cc:Work
         rdf:about="">
        <dc:format>image/svg+xml</dc:format>
        <dc:type
           rdf:resource="http://purl.org/dc/dcmitype/StillImage" />
        <dc:title />
      </cc:Work>
    </rdf:RDF>
  </metadata>
  <defs
     id="defs6" />
  <sodipodi:namedview
     pagecolor="#ffffff"
     bordercolor="#666666"
     borderopacity="1"
     objecttolerance="10"
     gridtolerance="10"
     guidetolerance="10"
     inkscape:pageopacity="0"
     inkscape:pageshadow="2"
     inkscape:window-width="1600"
     inkscape:window-height="876"
     id="namedview4"
     showgrid="false"
     inkscape:zoom="0.28333333"
     inkscape:cx="614.19265"
     inkscape:cy="599.99"
     inkscape:window-x="0"
     inkscape:window-y="24"
     inkscape:window-maximized="1"
     inkscape:current-layer="svg2"
     fit-margin-top="0"
     fit-margin-left="0"
     fit-margin-right="0"
     fit-margin-bottom="0" />
  <g
     id="g3115"
     transform="matrix(0.039995,0,0,0.04000067,0.0030002,0.00300063)">
    <path
       style="fill:#ccced3"
       d="m 564,1199.4657 c -0.825,-0.2229 -10.275,-0.8602 -21,-1.4162 -37.04432,-1.9205 -84.77571,-11.4394 -128.35411,-25.5972 C 271.9948,1126.1078 151.93429,1028.3227 77.059687,897.5 34.760427,823.59373 6.5634743,733.57033 1.7307415,657 c -1.58409891,-25.09863 -1.58409891,-88.90137 0,-114 C 4.1553604,504.58408 13.626661,457.49559 27.547673,414.64589 73.892165,271.9948 171.67731,151.93429 302.5,77.059687 376.40627,34.760427 466.42967,6.5634743 543,1.7307415 c 25.09863,-1.58409891 88.90137,-1.58409891 114,0 C 703.47942,4.6642879 760.22958,17.467726 811.10232,36.49786 910.24281,73.583676 1001.1787,139.17278 1067.5981,221.5 c 67.333,83.45958 110.1438,179.95597 126.9252,286.09205 3.5438,22.41334 4.9767,49.01952 4.9767,92.40795 0,43.38843 -1.4329,69.99461 -4.9767,92.40795 C 1169.571,850.2216 1085.5977,988.73588 957,1084.2031 c -43.23272,32.0948 -95.16521,60.3214 -145.89768,79.299 -49.23552,18.4177 -107.52229,31.7796 -151.10232,34.6393 -15.50435,1.0174 -93.17023,2.0888 -96,1.3243 z M 768,895.51367 c 0.45559,-161.26812 0.64224,-177.01372 2.10162,-177.29475 0.88089,-0.16963 19.05142,6.02868 40.37897,13.77403 21.32754,7.74535 38.95654,13.90325 39.17556,13.68424 0.8809,-0.88091 153.14385,-420.19181 152.79045,-420.76361 -0.8486,-1.37308 -136.66255,-50.09153 -137.39333,-49.28499 -0.43426,0.47927 -4.9733,12.45891 -10.08675,26.62141 -10.78497,29.87066 -11.93517,31.31625 -13.92404,17.5 -5.38592,-37.4149 -19.72349,-71.93621 -42.82004,-103.10001 -9.39802,-12.6806 -31.68137,-35.00844 -44.22244,-44.31073 -31.25663,-23.1845 -64.43411,-36.89539 -104,-42.97891 -15.78319,-2.42678 -46.24489,-2.42431 -62,0.005 -50.97052,7.85928 -92.13355,28.53512 -127.53087,64.05767 -34.59744,34.71984 -55.20768,75.31448 -62.9949,124.07697 -0.87833,5.5 -1.96727,10.37542 -2.41987,10.83427 -1.53389,1.55508 -3.71926,-3.27615 -12.64605,-27.9568 -4.89957,-13.54626 -9.36221,-24.80432 -9.91698,-25.0179 -0.55477,-0.21358 -31.60477,10.78096 -69,24.43231 -49.76053,18.16538 -67.92606,25.20776 -67.74792,26.26438 0.26464,1.56964 152.21866,419.23914 152.70031,419.72079 0.16152,0.16152 17.86717,-6.08404 39.34589,-13.87902 21.47872,-7.79499 39.76281,-13.90002 40.63131,-13.56675 1.43052,0.54894 1.57908,17.19884 1.57908,176.97067 0,97.00059 0.30147,176.66616 0.66994,177.03466 0.36847,0.3685 67.30597,0.556 148.75,0.4167 L 767.5,1072.5 768,895.51367 z M 501.04625,625.75 C 497.55475,617.69105 461,516.26147 461,514.63247 c 0,-2.72514 1.6215,-1.90454 9.21805,4.66503 16.8141,14.541 29.8497,23.19844 49.9507,33.17417 80.44858,39.92505 177.15671,27.54897 245.661,-31.43809 5.13136,-4.41847 9.74386,-8.03358 10.25,-8.03358 0.50614,0 0.92112,0.7875 0.92219,1.75 0.002,2.08676 -39.85828,112.19389 -41.26987,114 -0.77156,0.98719 -25.35143,1.25 -116.91075,1.25 l -115.93378,0 -1.84129,-4.25 z"
       id="path3129"
       inkscape:connector-curvature="0" />
    <path
       style="fill:#999ca6"
       d="M 552,1198.4676 C 510.28122,1195.621 465.41566,1187.117 423,1174.0164 267.29923,1125.9262 137.08475,1016.023 64.056183,871.06174 14.137772,771.97398 -6.1389791,669.30435 1.4819519,554.22234 15.142379,347.93923 141.8141,158.32556 328.93826,64.056183 401.2589,27.622507 476.94864,6.5991512 554.22234,1.4819519 669.30435,-6.1389791 771.97398,14.137772 871.06174,64.056183 984.8138,121.36218 1078.6378,215.1862 1135.9438,328.93826 c 49.9184,99.08776 70.1952,201.75739 62.5742,316.8394 -7.7228,116.62149 -53.0298,232.95174 -127.0898,326.31597 -96.47952,121.62747 -232.85066,200.22987 -385.87462,222.41257 -35.85751,5.198 -91.32028,6.8431 -133.55358,3.9614 z M 768.75277,896.71755 c 0.20987,-146.77623 0.48051,-176.86984 1.59452,-177.29732 0.73796,-0.28319 18.80576,5.82738 40.15065,13.57902 22.25644,8.08269 39.18311,13.7197 39.68627,13.21654 1.14625,-1.14625 153.07179,-418.15495 153.21009,-420.53456 0.088,-1.51765 -11.20766,-5.94628 -68.22976,-26.75 C 897.58003,285.21906 866.25685,274 865.55746,274 c -0.75195,0 -5.11022,10.49388 -10.66454,25.67818 -5.16611,14.123 -9.92961,25.8519 -10.58556,26.06422 -0.72087,0.23333 -1.43412,-1.12275 -1.8031,-3.42819 -4.71832,-29.4804 -11.16837,-49.99433 -23.03775,-73.26995 C 786.10431,183.62164 724.91972,139.9473 650.5,128.43381 c -15.0606,-2.33002 -47.87209,-2.33608 -63,-0.0116 -57.89806,8.89626 -108.27539,37.60579 -144.02397,82.07781 -22.44827,27.92614 -38.59066,62.69252 -45.0381,97 -1.44707,7.7 -2.82918,15.04447 -3.07136,16.32104 -0.79274,4.17862 -2.65493,1.72509 -6.35955,-8.379 -2.00486,-5.46812 -6.24889,-17.02954 -9.43119,-25.69204 -3.1823,-8.6625 -6.30795,-15.75 -6.94589,-15.75 -2.15148,0 -136.1187,49.07789 -137.28898,50.29478 -0.88563,0.92092 16.87797,50.74301 75.30325,211.20522 42.05427,115.5 76.83877,210.37794 77.29891,210.83986 0.46013,0.46192 18.29981,-5.51471 39.64373,-13.2814 21.34393,-7.76669 39.39349,-13.89625 40.11014,-13.62124 1.06386,0.40824 1.30301,32.86898 1.30301,176.86473 0,97.00059 0.30147,176.66613 0.66992,177.03463 0.36846,0.3684 67.75596,0.5559 149.75,0.4167 L 768.5,1073.5 768.75277,896.71755 z M 504.83514,629.32707 c -0.91567,-0.24251 -1.96133,-1.20281 -2.32369,-2.134 C 500.8069,622.81276 463.15984,519.225 462.55467,517.25 c -1.10599,-3.60939 0.74672,-2.69343 9.10358,4.50069 55.65658,47.91282 131.31192,65.90853 202.33256,48.12772 31.50621,-7.88793 64.72883,-24.72826 88.53617,-44.87841 11.65876,-9.86779 12.39209,-10.41426 13.06819,-9.73816 0.34535,0.34535 -8.53479,25.89738 -19.73363,56.78231 -17.45609,48.14156 -20.69189,56.28293 -22.67664,57.05513 -2.2803,0.88718 -225.02103,1.10938 -228.34976,0.22779 z"
       id="path3127"
       inkscape:connector-curvature="0" />
    <path
       style="fill:#7d818e"
       d="M 565,1199.3732 C 428.63655,1189.8631 308.62983,1140.8065 206,1052.6204 192.47805,1041.0015 158.99851,1007.522 147.37959,994 72.858981,907.27389 26.149252,808.02043 8.078855,698 1.6903959,659.10429 0.57701446,644.55967 0.57701446,600 c 0,-44.55967 1.11338144,-59.10429 7.50184054,-98 C 26.149252,391.97957 72.858981,292.72611 147.37959,206 158.99851,192.47805 192.47805,158.99851 206,147.37959 292.72611,72.858981 391.97957,26.149252 502,8.078855 c 38.89571,-6.3884591 53.44033,-7.50184054 98,-7.50184054 44.55967,0 59.10429,1.11338144 98,7.50184054 110.02043,18.070397 209.27389,64.780126 296,139.300735 13.522,11.61892 47.0015,45.09846 58.6204,58.62041 74.5206,86.72611 121.2303,185.97957 139.3007,296 6.3885,38.89571 7.5019,53.44033 7.5019,98 0,44.55967 -1.1134,59.10429 -7.5019,98 -18.0704,110.02043 -64.7801,209.27389 -139.3007,296 -11.6189,13.522 -45.0984,47.0015 -58.6204,58.6204 -85.26203,73.2626 -182.27005,119.4836 -290.48065,138.4042 -35.58625,6.2222 -57.31119,8.1115 -97.01935,8.437 -19.8,0.1623 -38.475,0.1225 -41.5,-0.088 z m 204.39301,-126.955 C 769.72686,1071.5482 770,991.89823 770,895.41821 770,742.43034 770.18637,720 771.45751,720 c 0.80163,0 18.68913,6.27857 39.75,13.95239 29.52843,10.75908 38.55215,13.67719 39.42702,12.75 C 852.10077,745.14846 1004,327.61925 1004,325.14289 c 0,-1.56923 -11.25041,-5.96292 -69.52297,-27.15124 -38.23763,-13.90348 -69.80267,-24.99934 -70.14455,-24.65747 -0.34187,0.34188 -4.77763,11.99404 -9.85724,25.8937 -5.07961,13.89967 -9.60682,25.17649 -10.06046,25.05961 -0.45363,-0.11688 -1.79707,-5.51688 -2.98542,-12 -18.00986,-98.25444 -95.1809,-171.82175 -193.79957,-184.74953 -15.06705,-1.97512 -42.13932,-1.97784 -57.32857,-0.006 -56.63482,7.3531 -108.21539,35.7724 -145.14027,79.96781 C 422.12172,235.07543 404.5246,272.16476 397.5784,307.78919 396.16028,315.0622 395,321.9099 395,323.00631 c 0,2.46053 -1.54251,2.61229 -2.47466,0.24346 -0.37875,-0.9625 -4.52398,-12.325 -9.21162,-25.25 -4.68765,-12.925 -8.8938,-23.8954 -9.34701,-24.37866 -0.46331,-0.49402 -31.31509,10.21411 -70.4778,24.46165 -68.72929,25.00398 -69.64853,25.37401 -69.25803,27.87866 0.57988,3.71928 151.88974,419.32295 153.17773,420.73414 0.83347,0.9132 10.16414,-2.09985 39.48348,-12.75 C 448.00774,726.27561 465.89524,720 466.64209,720 467.78081,720 468,748.31568 468,895.41821 c 0,96.48002 0.27314,176.12999 0.60699,176.99999 0.54975,1.4327 14.73024,1.5818 150.39301,1.5818 135.66277,0 149.84326,-0.1491 150.39301,-1.5818 z M 502.97978,626.75 c -4.15182,-9.55812 -39.6247,-109.31819 -38.95837,-109.56231 0.46884,-0.17177 5.26832,3.34741 10.66552,7.82039 25.96393,21.5179 57.24021,37.44338 89.23489,45.43727 20.95594,5.23585 27.98656,6.002 55.07818,6.002 20.21754,0 27.57155,-0.3738 35.5,-1.80444 44.27586,-7.98932 80.25599,-24.84843 112.95688,-52.9279 3.82629,-3.28554 7.09349,-5.56389 7.26046,-5.063 0.27384,0.82153 -38.88476,109.19182 -40.25881,111.41509 C 734.10721,628.63555 688.97035,629 618.91954,629 l -114.96242,0 -0.97734,-2.25 z"
       id="path3125"
       inkscape:connector-curvature="0" />
    <path
       style="fill:#727785"
       d="M 571,1199.3882 C 485.44052,1194.4709 406.18261,1173.5989 331.81226,1136.3997 215.49867,1078.221 121.779,984.50133 63.600293,868.18774 29.496812,800.00647 10.74168,733.95556 2.3558453,652.5 c -2.46055316,-23.90051 -2.46055316,-81.09949 0,-105 C 10.74168,466.04444 29.496812,399.99353 63.600293,331.81226 121.779,215.49867 215.49867,121.779 331.81226,63.600293 399.99353,29.496812 466.04444,10.74168 547.5,2.3558453 c 23.90051,-2.46055316 81.09949,-2.46055316 105,0 C 733.95556,10.74168 800.00647,29.496812 868.18774,63.600293 984.50133,121.779 1078.221,215.49867 1136.3997,331.81226 c 34.1035,68.18127 52.8586,134.23218 61.2445,215.68774 2.4605,23.90051 2.4605,81.09949 0,105 -4.4272,43.00343 -11.1614,78.73993 -21.6871,115.08751 -39.2936,135.69016 -126.9014,254.51089 -245.4571,332.90869 -96.37023,63.7271 -207.21971,97.682 -323,98.9396 -16.5,0.1793 -32.925,0.1578 -36.5,-0.048 z M 768.8,1073.8 c 0.92426,-0.9243 1.2,-41.7111 1.2,-177.5 0,-113.83272 0.34541,-176.3 0.97484,-176.3 0.53616,0 18.32248,6.3 39.52516,14 21.20268,7.7 38.94014,14 39.41658,14 1.21795,0 -3.37405,12.4347 79.61631,-215.59366 61.46912,-168.89559 75.34911,-207.93 74.28081,-208.89856 -2.026,-1.83697 -137.67597,-50.77461 -139.16158,-50.20453 -0.72051,0.27649 -5.32449,11.54069 -10.23107,25.03157 -4.90658,13.49087 -9.35265,24.57563 -9.88017,24.63278 -0.52751,0.0572 -1.71322,-4.30594 -2.63492,-9.69577 C 827.88823,231.29957 769.05252,162.91511 690.28977,137.04908 665.2973,128.84144 646.04657,125.75844 619.5,125.71211 c -27.00833,-0.0471 -47.91589,3.32155 -73.35991,11.81997 -74.99717,25.04941 -132.4566,90.25821 -148.54839,168.58265 -1.42543,6.9381 -2.5917,13.8381 -2.5917,15.33333 0,6.12823 -2.64596,0.79794 -10.98809,-22.13553 C 374.43295,272.97887 374.44208,273 372.63923,273 c -1.83122,0 -137.72369,49.68446 -138.77908,50.73985 -0.98538,0.98538 151.40482,420.8819 153.5385,423.06053 1.04188,1.06384 8.31138,-1.25548 39.96261,-12.75 C 448.64025,726.32267 466.489,720 467.02516,720 467.65459,720 468,782.46728 468,896.3 c 0,135.7889 0.27574,176.5757 1.2,177.5 1.74436,1.7444 297.85564,1.7444 299.6,0 z M 504.13817,627.66649 c -1.53619,-1.851 -40.30079,-108.67864 -39.88687,-109.9204 0.18443,-0.55329 3.01584,1.34816 6.29201,4.22544 55.10595,48.3964 132.40195,66.75287 204.45669,48.55494 31.95852,-8.07134 63.60098,-24.33192 89.5,-45.99266 4.95,-4.13995 9.14244,-7.10137 9.31652,-6.58092 0.3974,1.18802 -37.50033,105.73397 -39.43877,108.79711 l -1.42386,2.25 -113.8545,0 c -93.66636,0 -114.05074,-0.23645 -114.96122,-1.33351 z"
       id="path3123"
       inkscape:connector-curvature="0" />
    <path
       style="fill:#53596a"
       d="M 567,1198.9722 C 456.92978,1191.7701 354.42918,1157.2439 265.30501,1097.3495 211.8705,1061.4398 159.81814,1011.9441 120.24623,959.41577 61.374446,881.26844 22.754698,789.24543 7.5988722,691 c -9.9763577,-64.67028 -9.9763577,-117.32972 0,-182 C 21.2139,420.74257 53.058345,339.09922 102.65048,265.30501 138.56023,211.8705 188.05587,159.81814 240.58423,120.24623 318.73156,61.374446 410.75457,22.754698 509,7.5988722 c 64.67028,-9.9763577 117.32972,-9.9763577 182,0 88.25743,13.6150278 169.90078,45.4594728 243.69499,95.0516078 53.43451,35.90975 105.48691,85.40539 145.05881,137.93375 58.8718,78.14733 97.4915,170.17034 112.6473,268.41577 9.9764,64.67028 9.9764,117.32972 0,182 -13.615,88.25743 -45.4594,169.90078 -95.0516,243.69499 -35.9097,53.43451 -85.4054,105.48691 -137.93373,145.05881 -60.57579,45.6343 -131.2597,79.8899 -205.70105,99.689 -59.42876,15.8062 -130.31026,23.22 -186.71472,19.5294 z M 770,897.5 c 0.47359,-167.65136 0.59215,-176.98455 2.24466,-176.70739 0.95956,0.16093 18.40256,6.34843 38.76223,13.75 C 831.36656,741.94417 848.71693,748 849.56326,748 c 0.84634,0 2.14755,-1.4625 2.89159,-3.25 C 856.02304,736.17763 1005,325.86252 1005,324.6073 c 0,-1.72994 6.0252,0.59194 -74.10675,-28.5579 -35.96629,-13.08356 -65.90436,-23.59362 -66.52906,-23.35568 -0.6247,0.23794 -5.07401,11.31669 -9.88735,24.61945 -4.81335,13.30276 -9.11483,24.58942 -9.55884,25.08147 -0.44401,0.49206 -1.01656,-0.18294 -1.27234,-1.5 C 838.37655,293.76273 837.15702,288.93032 831.81111,274 811.42265,217.05807 765.25267,167.85717 709.97847,144.16943 651.09312,118.93412 587.43538,118.69669 529.60168,143.49665 c -69.56591,29.83091 -120.81376,94.5445 -133.46676,168.5361 -0.89921,5.25833 -2.08492,9.57274 -2.63492,9.58756 -0.55,0.0148 -4.92902,-10.77439 -9.73117,-23.97603 -4.80214,-13.20163 -9.2576,-24.32832 -9.90102,-24.72598 -0.64342,-0.39766 -2.7894,-0.14398 -4.76884,0.56372 -6.31155,2.25657 -132.52248,48.33589 -134.43853,49.08321 -1.19984,0.46797 -1.69852,1.45076 -1.434,2.82612 1.11875,5.81686 153.38986,421.90792 154.56483,422.35879 0.75145,0.28836 18.76833,-5.79251 40.0375,-13.51304 21.26918,-7.72053 39.00873,-13.83072 39.42123,-13.5782 0.4125,0.25252 0.75,79.78258 0.75,176.73345 0,96.95087 0.30146,176.57575 0.6699,176.94425 0.36845,0.3684 68.20595,0.5559 150.75,0.4166 L 769.5,1074.5 770,897.5 z M 503.48801,626.7542 c -0.24885,-0.68981 -7.48189,-20.6042 -16.07344,-44.2542 -22.9996,-63.31118 -23.41785,-64.5025 -22.6348,-64.47139 0.39613,0.0157 4.77023,3.43478 9.72023,7.5979 31.04988,26.11395 69.85935,43.37308 112.5,50.03035 15.95253,2.49059 49.14943,2.475 64.5,-0.0303 45.50761,-7.42708 82.47934,-24.35024 115.75893,-52.9866 3.16741,-2.72549 5.96185,-4.75252 6.20986,-4.50451 0.24801,0.24801 -8.47469,24.95649 -19.38378,54.90773 L 734.2503,627.5 619.09538,627.7542 c -91.60708,0.20223 -115.24744,-0.002 -115.60737,-1 z"
       id="path3121"
       inkscape:connector-curvature="0" />
    <path
       style="fill:#3b4255"
       d="m 572.55937,1199.327 c -6.01735,-0.2192 -11.41735,-0.773 -12,-1.2306 -0.58265,-0.4577 -5.78437,-1.1418 -11.55937,-1.5202 -13.16866,-0.8631 -36.12439,-3.8566 -55,-7.1722 C 386.85579,1170.5835 284.78943,1121.0606 202.5,1047.9674 189.79379,1036.6811 160.6234,1007.4063 149.72152,995 78.197568,913.60571 29.176069,811.77529 10.595972,706 7.2803517,687.12439 4.2868703,664.16866 3.4238425,651 3.0453692,645.225 2.245491,639.88378 1.6463356,639.13062 c -1.52076015,-1.91164 -1.52076015,-76.3496 0,-78.26124 C 2.245491,560.11622 3.0453692,554.775 3.4238425,549 4.2868703,535.83134 7.2803517,512.87561 10.595972,494 29.416529,386.85579 78.939431,284.78943 152.03264,202.5 163.31888,189.79379 192.59366,160.6234 205,149.72152 286.39429,78.197568 388.22471,29.176069 494,10.595972 c 18.87561,-3.3156203 41.83134,-6.3091017 55,-7.1721295 5.775,-0.3784733 11.11622,-1.1783515 11.86938,-1.7775069 1.91164,-1.52076015 76.3496,-1.52076015 78.26124,0 0.75316,0.5991554 6.09438,1.3990336 11.86938,1.7775069 13.16866,0.8630278 36.12439,3.8565092 55,7.1721295 105.77529,18.580097 207.60571,67.601596 289,139.125548 12.4063,10.90188 41.6811,40.07227 52.9674,52.77848 73.0932,82.28943 122.6161,184.35579 141.4366,291.5 3.3156,18.87561 6.3091,41.83134 7.1722,55 0.3784,5.775 1.1783,11.11622 1.7775,11.86938 0.7424,0.93325 1.0893,13.39582 1.0893,39.13062 0,25.7348 -0.3469,38.19737 -1.0893,39.13062 -0.5992,0.75316 -1.3991,6.09438 -1.7775,11.86938 -0.8631,13.16866 -3.8566,36.12439 -7.1722,55 -18.5801,105.77529 -67.6016,207.60571 -139.1255,289 -10.9019,12.4063 -40.0723,41.6811 -52.7785,52.9674 -82.28943,73.0932 -184.35579,122.6161 -291.5,141.4366 -18.87561,3.3156 -41.83134,6.3091 -55,7.1722 -5.775,0.3784 -10.97176,1.0584 -11.54836,1.511 -1.19038,0.9345 -50.29028,1.8444 -66.89227,1.2398 z M 768.4349,1075.0248 771,1074.0495 771,897.52475 C 771,800.43614 771.33345,721 771.741,721 c 0.40754,0 18.19844,6.37411 39.53532,14.16468 28.19675,10.29527 39.09459,13.86441 39.89351,13.06549 1.69251,-1.69251 154.82227,-423.08715 154.26887,-424.52931 -0.7879,-2.05333 -139.5518,-52.11929 -141.33585,-50.99394 -0.82245,0.51879 -4.34714,8.78447 -7.83264,18.36817 -3.4855,9.5837 -7.52679,20.56776 -8.98063,24.40903 l -2.64335,6.98412 -2.74164,-13.91642 C 823.14426,213.3252 747.54785,141.17967 651.56202,126.89814 c -19.41202,-2.88828 -45.71202,-2.88828 -65.12404,0 -97.27796,14.47378 -173.62055,88.62728 -190.95193,185.47646 -1.03036,5.7577 -2.07767,9.3015 -2.51204,8.5 C 392.56428,320.11857 389.29305,311.4 385.7046,301.5 375.30757,272.81611 374.96603,272 373.35888,272 c -2.40694,0 -138.66491,49.87746 -140.05471,51.26726 -1.01595,1.01595 13.74009,42.47567 75.69323,212.67365 42.32536,116.27643 77.39488,211.85137 77.93226,212.38875 0.63608,0.63608 14.55847,-3.96225 39.89395,-13.1763 C 448.2279,727.36901 466.02389,721 466.37025,721 466.71661,721 467,800.4395 467,897.53222 l 0,176.53218 2.25,0.9044 c 3.15264,1.2672 295.85508,1.3219 299.1849,0.056 z M 503.47687,624.59889 c -1.62188,-3.8817 -32.47905,-88.54208 -36.06743,-98.95535 -2.73182,-7.92758 -3.34015,-8.07376 8.97239,2.15596 22.95808,19.07444 54.65143,35.2016 84.61817,43.05795 70.97084,18.60636 147.11577,1.82543 202.95648,-44.72783 4.65106,-3.8775 8.59877,-6.9077 8.77269,-6.73379 0.35466,0.35467 -37.32725,103.98465 -38.8359,106.8036 C 732.97386,627.91736 727.69672,628 618.91379,628 l -114.01584,0 -1.42108,-3.40111 z"
       id="path3119"
       inkscape:connector-curvature="0" />
    <path
       style="fill:#232b41"
       d="m 572.5,1199 c -7.14204,-0.3926 -9.24638,-0.7241 -6,-0.9451 3.45075,-0.235 1.43672,-0.5887 -6.5,-1.1415 -42.79902,-2.981 -86.32044,-10.6697 -127,-22.4363 C 276.89412,1129.323 144.65535,1020.829 69.198864,876 31.417703,803.48394 7.9778641,719.91268 3.2586185,640.89987 2.6886492,631.35706 2.3963292,629.65205 1.9899245,633.5 0.94630884,643.38124 -0.16399981,599.82583 0.64522837,580.75 1.1382084,569.12904 1.6711303,563.48157 1.9899245,566.5 c 0.4064047,3.84795 0.6987247,2.14294 1.268694,-7.39987 C 5.6089232,519.74974 13.722496,473.79627 25.522935,433 70.677016,276.89412 179.17102,144.65535 324,69.198864 396.51606,31.417703 480.08732,7.9778641 559.10013,3.2586185 568.64294,2.6886492 570.34795,2.3963292 566.5,1.9899245 c -9.88124,-1.04361566 33.67417,-2.15392431 52.75,-1.34469613 11.62096,0.49298003 17.26843,1.02590193 14.25,1.34469613 -3.84795,0.4064047 -2.14294,0.6987247 7.39987,1.268694 C 680.25026,5.6089232 726.20373,13.722496 767,25.522935 923.10588,70.677016 1055.3447,179.17102 1130.8011,324 c 37.7812,72.51606 61.221,156.08732 65.9403,235.10013 0.57,9.54281 0.8623,11.24782 1.2687,7.39987 1.0436,-9.88124 2.1539,33.67417 1.3447,52.75 -0.493,11.62096 -1.0259,17.26843 -1.3447,14.25 -0.4064,-3.84795 -0.6987,-2.14294 -1.2687,7.39987 C 1194.3911,680.25026 1186.2775,726.20373 1174.4771,767 1129.323,923.10588 1020.829,1055.3447 876,1130.8011 c -72.84016,37.9501 -152.64617,60.3066 -236,66.1123 -7.71016,0.537 -9.85224,0.9058 -6.5,1.119 7.99074,0.5083 -17.23876,1.7035 -34.5,1.6343 -8.525,-0.034 -20.45,-0.3341 -26.5,-0.6667 z M 770.75279,899.54721 c 0.13904,-96.77404 0.63244,-176.33244 1.09645,-176.79645 0.46401,-0.46401 18.12526,5.43247 39.24721,13.10329 26.26687,9.53929 38.90311,13.67988 39.98427,13.10186 1.68861,-0.90277 154.04358,-418.00306 154.72828,-423.59785 0.3655,-2.98598 0.1192,-3.24045 -4.9622,-5.12665 -50.29481,-18.66934 -136.19412,-49.31211 -137.17692,-48.93497 -0.71252,0.27342 -5.05424,10.91306 -9.64826,23.64366 -4.59403,12.73059 -8.67142,23.34347 -9.06089,23.58417 -0.38947,0.2407 -1.01423,-1.91629 -1.38836,-4.79331 -2.13765,-16.43822 -10.74077,-43.10278 -20.0789,-62.2327 C 796.82619,196.86821 748.1831,154.35438 690.82648,135.54794 633.69053,116.81385 572.75213,120.85892 519.44819,146.92396 459.02241,176.4715 415.04338,230.46495 398.54594,295.35671 c -1.83779,7.22881 -3.66044,15.54779 -4.05036,18.48662 -0.38991,2.93883 -1.06277,4.96383 -1.49525,4.5 -0.43247,-0.46383 -4.51174,-11.1246 -9.06503,-23.69061 -4.5533,-12.566 -8.87754,-23.07706 -9.60944,-23.35792 -0.94654,-0.36322 -106.2667,37.29797 -141.07586,50.44699 -0.6875,0.25971 -1.25,1.43687 -1.25,2.61593 0,1.17905 34.56107,97.09341 76.80237,213.14301 72.39677,198.89574 76.94328,211.01609 79.25877,211.29241 1.35102,0.16123 19.24405,-5.80984 39.76229,-13.26905 20.51823,-7.45921 37.72679,-13.30207 38.24123,-12.98413 0.57471,0.3552 0.93534,68.34858 0.93534,176.35239 0,96.67587 0.30145,176.07575 0.66988,176.44415 0.36844,0.3685 68.65594,0.556 151.75,0.4167 L 770.5,1075.5 770.75279,899.54721 z M 504.46837,625.75424 C 498.92003,611.01427 467,522.52542 467,521.88424 c 0,-0.49388 3.2625,1.84994 7.25,5.20848 11.56894,9.74414 30.01449,21.56091 45.19819,28.95531 69.82259,34.00328 152.07359,30.0586 218.55181,-10.48157 10.46506,-6.38187 23.43933,-15.87617 29.25,-21.40454 2.2498,-2.1405 3.73236,-2.98656 3.70591,-2.11487 -0.0243,0.79912 -8.49277,24.62795 -18.81892,52.95295 l -18.77482,51.5 -114.21084,0.25424 c -90.84358,0.20222 -114.30744,-0.002 -114.68296,-1 z"
       id="path3117"
       inkscape:connector-curvature="0" />
  </g>
</svg>
