<?xml version="1.0" encoding="UTF-8" standalone="no"?>
<!-- Created with Inkscape (http://www.inkscape.org/) -->

<svg
   xmlns:dc="http://purl.org/dc/elements/1.1/"
   xmlns:cc="http://creativecommons.org/ns#"
   xmlns:rdf="http://www.w3.org/1999/02/22-rdf-syntax-ns#"
   xmlns:svg="http://www.w3.org/2000/svg"
   xmlns="http://www.w3.org/2000/svg"
   xmlns:sodipodi="http://sodipodi.sourceforge.net/DTD/sodipodi-0.dtd"
   xmlns:inkscape="http://www.inkscape.org/namespaces/inkscape"
   id="svg2987"
   version="1.1"
   inkscape:version="0.48.1 r9760"
   width="48"
   height="47.999996"
   sodipodi:docname="block.svg">
  <metadata
     id="metadata2993">
    <rdf:RDF>
      <cc:Work
         rdf:about="">
        <dc:format>image/svg+xml</dc:format>
        <dc:type
           rdf:resource="http://purl.org/dc/dcmitype/StillImage" />
        <dc:title />
      </cc:Work>
    </rdf:RDF>
  </metadata>
  <defs
     id="defs2991" />
  <sodipodi:namedview
     pagecolor="#ffffff"
     bordercolor="#666666"
     borderopacity="1"
     objecttolerance="10"
     gridtolerance="10"
     guidetolerance="10"
     inkscape:pageopacity="0"
     inkscape:pageshadow="2"
     inkscape:window-width="1600"
     inkscape:window-height="876"
     id="namedview2989"
     showgrid="false"
     inkscape:zoom="0.28333333"
     inkscape:cx="607.13759"
     inkscape:cy="599.98107"
     inkscape:window-x="0"
     inkscape:window-y="24"
     inkscape:window-maximized="1"
     inkscape:current-layer="svg2987"
     fit-margin-top="0"
     fit-margin-left="0"
     fit-margin-right="0"
     fit-margin-bottom="0" />
  <g
     id="g3080"
     transform="matrix(0.03999475,0,0,0.04000126,0.00315055,0.00202131)">
    <path
       style="fill:#cdcfd4"
       d="m 552.5,1198.8795 c -33.33603,-2.0984 -57.26275,-5.5213 -87.44303,-12.5095 C 371.03809,1164.6002 288.03373,1123.0425 211.5,1059.4222 194.76115,1045.5076 154.49239,1005.2388 140.57785,988.5 76.957474,911.96627 35.399848,828.96191 13.630001,734.94303 3.6998883,692.05719 -0.01768618,655.29926 -0.01768618,600 c 0,-55.29926 3.71757448,-92.05719 13.64768718,-134.94303 C 35.399848,371.03809 76.957474,288.03373 140.57785,211.5 154.49239,194.76115 194.76115,154.49239 211.5,140.57785 288.03373,76.957474 371.03809,35.399848 465.05697,13.630001 507.94281,3.6998883 544.70074,-0.01768618 600,-0.01768618 c 55.29926,0 92.05719,3.71757448 134.94303,13.64768718 94.01888,21.769847 177.02324,63.327473 253.55697,126.947849 16.7388,13.91454 57.0076,54.1833 70.9222,70.92215 63.6203,76.53373 105.178,159.53809 126.9478,253.55697 9.9301,42.88584 13.6477,79.64377 13.6477,134.94303 0,55.29926 -3.7176,92.05719 -13.6477,134.94303 -21.7698,94.01888 -63.3275,177.02324 -126.9478,253.55697 -13.9146,16.7388 -54.1834,57.0076 -70.9222,70.9222 -76.53373,63.6203 -159.53809,105.178 -253.55697,126.9478 -44.17207,10.2279 -80.69011,13.7857 -138.44303,13.4878 -17.05,-0.088 -36.85,-0.5282 -44,-0.9783 z m 215.5,-190.1553 0,-40.27571 -71.75,-49.38503 c -39.4625,-27.16178 -72.22512,-49.38769 -72.80582,-49.39092 -0.5807,-0.003 -35.3432,23.56678 -77.25,52.37781 L 470,974.43403 l 0,37.28297 0,37.283 149,0 149,0 0,-40.2758 z M 483.21112,913.36215 c 57.35888,-39.40081 105.78831,-73.03831 107.62096,-74.75 1.83264,-1.71168 3.75718,-3.89257 4.27676,-4.84641 0.76737,-1.40875 -8.28551,-13.70242 -48.23328,-65.5 -27.04787,-35.07116 -49.6902,-63.71903 -50.31628,-63.66193 -2.08904,0.19051 -218.65067,149.62201 -218.31166,150.63905 0.55267,1.65801 99.19537,129.64975 99.9635,129.70551 0.39112,0.0284 47.64112,-32.1854 105,-71.58622 z m 435.98733,6.55788 c 27.34526,-35.43101 49.62216,-64.76546 49.50422,-65.18766 -0.29953,-1.0723 -216.92996,-149.97733 -218.395,-150.11794 -1.40014,-0.13437 -100.32842,127.76209 -100.26391,129.62318 0.051,1.47113 216.97206,150.80654 218.44614,150.38532 0.54444,-0.15557 23.36329,-29.27188 50.70855,-64.7029 z M 388.1368,726.40594 c 62.81499,-43.18637 114.98946,-78.93833 115.94327,-79.44879 1.23446,-0.66066 2.29931,-0.428 3.69517,0.80736 1.07852,0.95452 27.51401,34.95072 58.74552,75.54712 45.33782,58.93253 57.02526,73.54722 57.97862,72.5 0.65674,-0.7214 26.70254,-34.45655 57.87955,-74.967 31.17702,-40.51045 57.31867,-73.89835 58.09257,-74.19532 0.82087,-0.315 45.88986,30.04082 108.17771,72.86212 58.72384,40.37114 106.91373,73.25897 107.08863,73.08406 0.44782,-0.44782 -82.72313,-228.9113 -83.70551,-229.93187 -0.4428,-0.46 -28.76,9.3275 -62.92712,21.75 L 746.98317,607 618.99772,607 491.01228,607 426.3664,583.43974 c -35.55524,-12.95814 -64.96772,-23.19564 -65.36107,-22.75 -0.71712,0.81246 -87.68383,239.36483 -88.75197,243.4494 -0.38079,1.45616 -0.19827,1.94484 0.55299,1.48054 0.61676,-0.38118 52.51547,-36.02736 115.33045,-79.21374 z M 640.57632,550.93702 c 67.30745,-6.54965 127.51383,-42.78893 165.7433,-99.76381 7.64803,-11.39817 20.68138,-37.97198 25.1148,-51.20681 C 843.11882,365.08564 846.12694,325.64232 839.8972,289 830.63301,234.50959 799.02621,182.74363 754.4199,149.00435 694.35529,103.57274 615.97806,91.47688 544,116.53051 489.72089,135.4236 442.92053,177.22602 417.57407,229.45507 403.3122,258.84314 396.38203,287.00772 395.2946,320 c -1.30586,39.61966 6.39414,74.73176 24.0131,109.5 21.8016,43.02204 57.16416,77.81144 101.1923,99.55219 36.61708,18.08123 79.27223,25.85546 120.07632,21.88483 z"
       id="path3094"
       inkscape:connector-curvature="0" />
    <path
       style="fill:#999da7"
       d="m 552,1198.4676 c -31.80678,-2.1703 -62.8184,-7.1382 -96.5,-15.4589 C 286.24386,1141.1956 142.39217,1026.5582 64.056183,871.06174 14.098003,771.89504 -6.1450505,669.39603 1.4819519,554.22234 12.993821,380.38412 106.00761,214.82243 250,111.86783 319.59821,62.105083 398.8853,27.581669 481.5,11.067427 c 74.15876,-14.8239442 162.84124,-14.8239442 237,0 179.64932,35.910951 334.9881,154.196733 417.4438,317.870833 49.9582,99.1667 70.2013,201.66571 62.5742,316.8394 -7.7275,116.69237 -52.9848,232.89499 -127.0898,326.31597 -96.40236,121.53027 -233.17602,200.40357 -385.65054,222.39327 -36.20026,5.2207 -91.49146,6.866 -133.77766,3.9807 z m 216.5,-189.9151 0,-40.94744 -72.30188,-49.75123 c -39.76604,-27.36318 -72.84104,-49.53769 -73.5,-49.27668 C 622.03915,868.83816 587.3,892.5753 545.5,921.32635 l -76,52.27465 -0.26257,36.9455 c -0.14442,20.3201 -0.0455,37.5113 0.21987,38.2028 0.38505,1.0034 30.61697,1.2061 149.76257,1.004 L 768.5,1049.5 l 0,-40.9475 z M 485.59164,912.84325 c 66.9834,-46.05097 107.39223,-74.44438 109.06078,-76.63197 2.39202,-3.1361 2.51391,-3.69081 1.24913,-5.68473 -4.91616,-7.75027 -98.40452,-127.56264 -99.3488,-127.32298 C 495.91039,703.36661 446.24635,737.25 386.18822,778.5 305.86319,833.67 277.0921,853.93181 277.37164,855.13316 277.87589,857.30023 377.10902,986 378.27567,986 c 0.49823,0 48.79042,-32.92054 107.31597,-73.15675 z m 434.3304,7.65703 c 27.54298,-35.74984 49.93987,-65.44984 49.77086,-66 -0.47045,-1.53143 -218.95044,-151.5811 -220.13494,-151.18627 -0.571,0.19034 -20.97946,26.18505 -45.35214,57.76603 -60.83023,78.82098 -56.54507,73.0171 -55.00782,74.50323 3.30982,3.19973 218.44127,150.40425 219.47395,150.17589 0.64457,-0.14254 23.70711,-29.50903 51.25009,-65.25888 z M 387.63763,727.93536 c 67.27825,-46.25584 117.17247,-79.92649 118.15745,-79.73748 0.93771,0.17994 24.77653,30.24653 52.97517,66.81464 71.7382,93.03039 64.0674,83.60639 66.23039,81.36774 0.99919,-1.03414 27.10884,-34.73026 58.02143,-74.88026 30.9389,-40.18416 56.9982,-73.13649 57.96984,-73.30363 1.03412,-0.17789 46.02529,30.13036 108.63661,73.1829 63.70771,43.80644 106.99261,72.95691 107.17139,72.17521 0.16495,-0.72123 -18.36477,-52.55354 -41.17715,-115.1829 C 867.0862,545.11881 873.01991,561 871.76906,561 c -0.55933,0 -28.86497,10.125 -62.90143,22.5 L 746.98317,606 619.24158,606.0192 491.5,606.0384 426.2552,582.3473 c -35.88464,-13.0301 -65.45811,-23.47778 -65.71882,-23.21707 -0.43376,0.43376 -88.36204,241.45585 -89.97037,246.61971 -0.38543,1.2375 -0.40382,2.25 -0.0408,2.25 0.36296,0 53.06357,-36.02909 117.11247,-80.06464 z M 640.57632,551.93702 c 67.44658,-6.56319 128.03007,-42.8639 165.9071,-99.40904 23.69232,-35.36932 35.9593,-74.13732 37.24276,-117.70024 1.12158,-38.06878 -5.51152,-70.40887 -21.24046,-103.55914 C 797.47391,178.55378 753.0096,137.72326 698.01193,116.96728 658.31748,101.98669 611.67739,98.760933 569.569,108.08381 504.34885,122.52368 447.19546,167.42189 417.55759,227.5 c -10.88758,22.0699 -17.44557,42.69988 -21.29839,67 -2.46284,15.53339 -2.41532,51.70731 0.088,67 8.00544,48.90455 29.50366,91.2968 63.65278,125.51661 24.59781,24.64873 55.30711,43.61895 88.03115,54.37996 30.01341,9.86964 62.00013,13.51277 92.54517,10.54045 z"
       id="path3092"
       inkscape:connector-curvature="0" />
    <path
       style="fill:#7d818e"
       d="m 566,1199.4119 c -57.14249,-4.5776 -100.13056,-12.497 -146,-26.8965 C 341.48571,1147.868 270.68344,1108.2005 206,1052.6204 192.47805,1041.0015 158.99851,1007.522 147.37959,994 69.403431,903.25236 21.591913,798.06903 5.558707,682 1.1590446,650.14957 0.54385135,640.09029 0.54385135,600 c 0,-40.09029 0.61519325,-50.14957 5.01485565,-82 C 21.591913,401.93097 69.403431,296.74764 147.37959,206 158.99851,192.47805 192.47805,158.99851 206,147.37959 296.74764,69.403431 401.93097,21.591913 518,5.558707 c 31.85043,-4.3996624 41.90971,-5.01485565 82,-5.01485565 40.09029,0 50.14957,0.61519325 82,5.01485565 116.06903,16.033206 221.25236,63.844724 312,141.820883 13.522,11.61892 47.0015,45.09846 58.6204,58.62041 77.9762,90.74764 125.7877,195.93097 141.8209,312 4.3997,31.85043 5.0148,41.90971 5.0148,82 0,40.09029 -0.6151,50.14957 -5.0148,82 -16.0332,116.06903 -63.8447,221.25236 -141.8209,312 -11.6189,13.522 -45.0984,47.0015 -58.6204,58.6204 -85.19189,73.2023 -183.04622,119.8349 -290.26222,138.3247 -38.53882,6.6462 -56.45438,8.2121 -97.73778,8.5429 -19.525,0.1564 -37.525,0.1222 -40,-0.076 z M 768.8,1049.8 c 0.89302,-0.893 1.2,-11.3532 1.2,-40.8892 0,-36.37775 -0.14601,-39.85456 -1.75,-41.67073 -2.24751,-2.54482 -141.81232,-98.31285 -144.17313,-98.93022 -1.16961,-0.30586 -27.67949,17.33222 -77.67623,51.68111 -41.74535,28.67998 -76.46314,52.87575 -77.15064,53.76836 -1.76441,2.29082 -1.81174,74.27898 -0.05,76.04068 1.74436,1.7444 297.85564,1.7444 299.6,0 z M 486.54471,912.93645 c 75.73596,-52.0622 106.91792,-74.0356 108.7839,-76.65816 2.53757,-3.56646 2.56428,-3.75511 0.89358,-6.3115 -6.33025,-9.68605 -98.74043,-127.9819 -99.6916,-127.6169 -1.88274,0.72247 -216.82531,148.65479 -218.92461,150.67292 -2.29955,2.21064 -9.11624,-7.23409 51.84825,71.83738 34.25399,44.42772 48.37821,62.03435 49.43829,61.62756 0.81623,-0.31322 49.25971,-33.4113 107.65219,-73.5513 z m 383.63386,72.73416 C 873.60164,982.22692 970.5,855.6972 970.5,854.67105 c 0,-0.64408 -49.65451,-35.31654 -110.34336,-77.04992 -107.32224,-73.80136 -110.39268,-75.82742 -112.14506,-74 -5.80556,6.05417 -100.0794,129.76587 -99.82281,130.99338 0.26783,1.28134 218.13911,152.13198 219.9898,152.31748 0.37322,0.0374 1.27322,-0.53022 2,-1.26138 z M 387.86383,728.51267 c 65.48847,-45.03634 117.61069,-80.2379 118.3374,-79.92104 0.71433,0.31146 24.47377,30.71158 52.79877,67.55581 63.25596,82.28129 63.86493,83.05407 64.9293,82.39626 0.47479,-0.29344 26.87477,-34.28581 58.66663,-75.53861 C 714.38778,681.75229 740.71313,648 741.0967,648 c 0.38357,0 48.53503,32.88303 107.00325,73.07341 58.46822,40.19037 107.11455,73.5062 108.10295,74.03518 1.37418,0.73544 1.7971,0.59291 1.7971,-0.60564 0,-1.94758 -83.87886,-232.66892 -85.02873,-233.88423 -0.47215,-0.49902 -27.7542,8.93514 -62.89743,21.75 L 748.01024,605 619.1287,605 490.24717,605 425.87359,581.57261 c -50.82192,-18.49555 -64.63745,-23.1713 -65.62698,-22.21089 -0.94611,0.91825 -87.05043,235.83535 -90.6754,247.38828 -0.40256,1.28296 -0.28479,2.25 0.27399,2.25 0.53899,0 53.64737,-36.2193 118.01863,-80.48733 z M 650,551.36619 c 49.76979,-7.10051 93.41265,-28.77274 128.5499,-63.83548 34.40735,-34.3344 56.44246,-78.19023 64.09496,-127.56636 2.48267,-16.01884 2.47549,-49.2481 -0.0139,-64.46435 -5.50933,-33.67517 -17.4615,-65.33855 -34.35033,-91 C 757.0914,126.72142 665.08752,88.268477 574,106.58263 c -26.55974,5.34014 -57.81562,18.32085 -80.1217,33.27493 -53.70547,36.00436 -89.04559,92.21866 -98.50745,156.69243 -2.40186,16.36643 -2.41264,46.79975 -0.0221,62.45001 9.41137,61.6145 40.56696,114.01865 89.15128,149.95372 47.99599,35.49992 107.34515,50.70925 165.5,42.41247 z"
       id="path3090"
       inkscape:connector-curvature="0" />
    <path
       style="fill:#737886"
       d="M 571,1199.3882 C 448.69245,1192.359 337.08146,1152.0511 240.5,1080.0294 166.87374,1025.1256 105.99135,952.46085 64.559628,870.03987 29.61603,800.52586 10.832199,734.83481 2.3558453,652.5 c -2.46055316,-23.90051 -2.46055316,-81.09949 0,-105 C 10.832199,465.16519 29.61603,399.47414 64.559628,329.96013 122.10375,215.48643 215.48643,122.10375 329.96013,64.559628 399.47414,29.61603 465.16519,10.832199 547.5,2.3558453 c 23.90051,-2.46055316 81.09949,-2.46055316 105,0 82.33481,8.4763537 148.02586,27.2601847 217.53987,62.2037827 114.4737,57.544122 207.85633,150.926802 265.40053,265.400502 34.9436,69.51401 53.7274,135.20506 62.2038,217.53987 2.4605,23.90051 2.4605,81.09949 0,105 -8.4764,82.33481 -27.2602,148.02586 -62.2038,217.53987 -57.5442,114.4737 -150.92683,207.85633 -265.40053,265.40053 -68.39148,34.3793 -134.06859,53.41 -212.53987,61.5858 -19.21964,2.0025 -69.07018,3.3637 -86.5,2.362 z m 198.76096,-189.9733 c 0.24283,-38.23209 0.13802,-41.19635 -1.50941,-42.68725 -0.9737,-0.88119 -33.86649,-23.67596 -73.09509,-50.65506 C 633.61422,873.7475 623.56148,867.16432 621.86132,868.07422 618.56908,869.83617 472.66487,970.17091 470.25,972.3336 l -2.25,2.01503 0,37.65897 c 0,20.7125 0.30146,37.9605 0.6699,38.329 0.36845,0.3684 68.20595,0.5559 150.75,0.4166 L 769.5,1050.5 l 0.26096,-41.0851 z M 485.6554,913.86036 c 73.07472,-50.23282 107.38271,-74.38327 109.54271,-77.11049 2.80306,-3.53916 3.00094,-4.2015 1.82009,-6.09234 C 593.75929,825.43919 498.63348,702.79658 497.51067,702.36572 495.88119,701.74043 276,852.89232 276,854.63776 c 0,0.72725 18.30166,25.06877 40.67035,54.09226 C 376.70691,986.62776 376.99941,987 378.17386,987 c 0.5961,0 48.96279,-32.91284 107.48154,-73.13964 z M 920.06115,921.75 c 27.67913,-35.8875 50.35115,-66.00818 50.38227,-66.93485 0.0382,-1.13711 -35.66858,-26.2507 -109.83487,-77.25 C 800.16825,736.00432 750.41494,702 750.04564,702 c -1.37816,0 -6.90113,6.97187 -54.53599,68.84302 -47.61672,61.84758 -48.72369,63.38673 -46.88885,65.19476 C 651.559,838.93305 867.31452,987 868.59516,987 c 0.62716,0 23.78685,-29.3625 51.46599,-65.25 z M 387.63083,729 c 64.00082,-44 116.99613,-80 117.76735,-80 0.77122,0 27.4225,33.76367 59.22507,75.03037 31.80257,41.2667 58.34563,74.9042 58.98458,74.75 0.63894,-0.1542 27.00573,-33.80492 58.59286,-74.77937 31.58713,-40.97445 58.12007,-74.63167 58.96209,-74.79383 0.84203,-0.16216 49.41236,32.63725 107.93409,72.88757 58.52172,40.25033 107.19063,73.39754 108.15313,73.66047 0.9625,0.26293 1.75,0.17739 1.75,-0.19009 0,-0.97755 -84.01461,-231.7239 -85.128,-233.80429 C 873.3537,560.79237 872.43969,560 871.84087,560 c -0.59883,0 -28.93678,10.125 -62.97324,22.5 L 746.98317,605 619.24158,605.03882 491.5,605.07764 426.23922,581.3496 C 385.63441,566.58618 360.62618,557.97641 360.04607,558.56078 359.05707,559.55705 269,806.28131 269,807.99456 269,808.54755 269.50978,809 270.13284,809 270.75591,809 323.63,773 387.63083,729 z M 652,551.47091 c 64.34301,-9.71259 120.85994,-45.98567 156.62679,-100.52452 73.20916,-111.63249 32.21864,-264.05773 -87.32554,-324.72428 -35.22116,-17.87412 -68.91287,-25.17689 -110.2392,-23.89466 -34.24832,1.06262 -60.83771,7.63734 -91.56205,22.6404 -24.24373,11.83849 -43.03687,25.57976 -62.71067,45.85311 -39.59593,40.8026 -61.34559,91.75768 -63.46215,148.67904 -3.03312,81.57087 38.31231,158.73863 107.75292,201.11173 30.30132,18.49005 63.79151,29.36554 100.9199,32.77238 8.91071,0.81763 39.71842,-0.36119 50,-1.9132 z"
       id="path3088"
       inkscape:connector-curvature="0" />
    <path
       style="fill:#545a6b"
       d="M 567,1198.9722 C 446.48394,1191.0866 334.11997,1150.0717 240.70771,1079.8695 197.19677,1047.1696 152.83036,1002.8032 120.13054,959.29229 60.88884,880.46429 21.257716,785.40131 7.0305877,688 c -9.194471,-62.94689 -9.194471,-113.05311 0,-176 C 21.257716,414.59869 60.88884,319.53571 120.13054,240.70771 152.83036,197.19677 197.19677,152.83036 240.70771,120.13054 319.53571,60.88884 414.59869,21.257716 512,7.0305877 c 62.94689,-9.194471 113.05311,-9.194471 176,0 97.40131,14.2271283 192.46429,53.8582523 271.29229,113.0999523 43.51091,32.69982 87.87731,77.06623 120.57721,120.57717 59.2417,78.828 98.8728,173.89098 113.0999,271.29229 9.1945,62.94689 9.1945,113.05311 0,176 -14.2271,97.40131 -53.8582,192.46429 -113.0999,271.29229 -32.6999,43.51091 -77.0663,87.87731 -120.57721,120.57721 -60.91877,45.7823 -131.10239,79.7648 -205.73409,99.6151 -59.4561,15.8139 -130.03208,23.1862 -186.5582,19.4876 z m 202.7609,-190.1308 0.2609,-41.65851 -73.03241,-50.19018 c -41.49721,-28.5182 -73.62922,-49.96116 -74.41458,-49.65979 -0.7602,0.29171 -35.85052,24.22668 -77.97849,53.18882 L 468,973.18017 l 0,38.24323 c 0,21.0338 0.30146,38.5447 0.6699,38.9132 0.36845,0.3684 68.20595,0.5559 150.75,0.4166 L 769.5,1050.5 l 0.2609,-41.6586 z M 484.65748,914.9396 c 57.66339,-39.63322 106.54903,-73.7181 108.63476,-75.74419 2.08573,-2.02608 4.0329,-4.64269 4.32705,-5.81468 0.79158,-3.15389 -97.77335,-130.9054 -100.93689,-130.82585 -1.95481,0.0492 -215.57154,146.05541 -220.00836,150.37491 -2.15131,2.09444 -8.49523,-6.64273 55.82596,76.88634 26.48918,34.3995 44.65963,57.14831 45.65748,57.16167 0.91162,0.0122 48.83662,-32.40498 106.5,-72.0382 z M 875.26469,980.25 C 899.14689,950.11757 971,855.84291 971,854.64077 971,852.97303 752.14098,702 749.72334,702 c -1.80527,0 -102.06745,129.81882 -102.15795,132.27345 -0.0463,1.25656 31.84956,23.75208 109.43461,77.18198 60.225,41.4747 110.26833,75.43915 111.20741,75.47656 0.96111,0.0383 4.04581,-2.88238 7.05728,-6.68199 z M 387.5,729.44475 c 63.8,-43.88779 116.73001,-79.82946 117.62224,-79.87037 1.0091,-0.0463 23.33959,28.0837 59.08151,74.42562 31.60259,40.975 58.13978,74.63196 58.97151,74.79323 0.97991,0.19001 21.87288,-26.12363 59.35133,-74.75 C 714.33808,682.76946 740.79283,649 741.31493,649 c 0.52209,0 49.13133,33.12424 108.02053,73.60942 58.8892,40.48519 107.65476,73.83333 108.36791,74.10699 C 958.43228,796.99612 959,796.5141 959,795.61553 959,794.46096 879.7916,575.3123 874.47238,561.75 c -0.3775,-0.9625 -1.59399,-1.75 -2.70332,-1.75 -1.10933,0 -29.86497,10.125 -63.90143,22.5 L 745.98317,605 618.98238,605 491.9816,605 427.40471,581.5 C 391.88743,568.575 362.02794,558 361.05031,558 c -1.45062,0 -9.55592,21.37955 -44.07211,116.25 -23.26203,63.9375 -43.77383,120.36208 -45.58177,125.38796 -3.12046,8.67448 -3.33558,10.94522 -0.94866,10.01351 C 271.02649,809.42557 323.7,773.33255 387.5,729.44475 z M 642.78941,552.94548 C 718.84599,544.68616 785.78552,498.77941 820.37433,431.15876 831.06582,410.25707 838.16716,389.03974 842.51737,365 845.1711,350.33521 845.70446,314.75438 843.5162,298.36755 834.4536,230.50222 795.79604,170.9237 737.37695,134.78712 710.08066,117.90233 679.65641,107.30037 646,102.94494 633.78872,101.3647 604.2294,101.36316 592,102.94213 503.92302,114.31401 431.35538,173.77187 403.97416,257 c -8.26503,25.12246 -11.48142,48.43934 -10.68552,77.46372 0.96854,35.32 7.49502,62.07061 22.69854,93.03628 28.23963,57.51689 79.20308,100.21516 140.74925,117.92275 10.74735,3.09215 30.84816,6.97664 40.76357,7.87759 9.19996,0.83594 36.27759,0.62378 45.28941,-0.35486 z"
       id="path3086"
       inkscape:connector-curvature="0" />
    <path
       style="fill:#3b4256"
       d="m 573,1199.3584 c -5.775,-0.2036 -11.4,-0.7718 -12.5,-1.2628 -1.1,-0.4909 -8.45114,-1.397 -16.33588,-2.0135 C 474.12096,1190.606 395.1354,1167.9347 329.39806,1134.4375 270.5555,1104.4536 220.80797,1067.989 173.82393,1020.4027 135.5887,981.67729 106.13671,942.99542 79.563297,896.60194 37.787642,823.66748 10.165868,735.75226 3.9178519,655.83588 3.3014084,647.95114 2.2904375,640.43849 1.67125,639.14108 c -1.57185913,-3.29358 -1.57185913,-74.98858 0,-78.28216 0.6191875,-1.29741 1.6301584,-8.81006 2.2466019,-16.6948 C 8.5757896,484.58593 25.804927,417.77821 51.799035,358.5 90.205013,270.91717 151.25469,191.86261 227.38317,131.13228 294.93759,77.241773 374.22189,38.419747 458.5,17.964556 486.5221,11.163294 518.44665,5.9284936 544.16412,3.9178519 c 7.88474,-0.6164435 15.39739,-1.6274144 16.6948,-2.2466019 3.29358,-1.57185913 74.98858,-1.57185913 78.28216,0 1.29741,0.6191875 8.81006,1.6301584 16.6948,2.2466019 70.04316,5.4761086 149.02872,28.1474561 214.76606,61.6446371 58.84256,29.983863 108.59009,66.448481 155.57416,114.034841 38.2352,38.72538 67.6872,77.40725 94.2606,123.80073 41.7757,72.93446 69.3974,160.84968 75.6454,240.76606 0.6165,7.88474 1.6275,15.39739 2.2466,16.6948 1.5719,3.29358 1.5719,74.98858 0,78.28216 -0.6191,1.29741 -1.6301,8.81006 -2.2466,16.6948 -4.6579,59.57819 -21.887,126.38591 -47.8811,185.66412 -38.406,87.58283 -99.4557,166.6374 -175.58417,227.3677 -67.55442,53.8905 -146.83872,92.7126 -231.11683,113.1677 -28.10264,6.8209 -60.08944,12.0599 -85.66412,14.0307 -7.88474,0.6076 -15.08713,1.4975 -16.00532,1.9775 -1.83031,0.9568 -50.0626,1.9057 -66.83056,1.3148 z M 769.8,1050.8 c 0.89405,-0.894 1.2,-11.5841 1.2,-41.9286 0,-34.24908 -0.23072,-40.95926 -1.45027,-42.17881 -0.79765,-0.79765 -33.65924,-23.60503 -73.02577,-50.68308 -53.9905,-37.13707 -72.12195,-49.1242 -73.79973,-48.79073 -2.31336,0.4598 -153.66602,104.12857 -154.95892,106.13887 -0.40408,0.62829 -0.74158,18.03985 -0.75,38.69235 -0.0114,27.8898 0.29341,37.8587 1.18469,38.75 1.74441,1.7444 299.85559,1.7444 301.6,0 z M 485.70327,914.82746 c 112.32267,-77.21255 115.25312,-79.41381 112.23106,-84.30459 -4.0035,-6.4791 -98.6712,-128.4918 -100.09097,-129.00249 -2.02121,-0.72703 -222.17942,150.2998 -222.65233,152.73778 -0.17166,0.88491 20.00238,27.95858 45.39277,60.91733 C 374.26652,984.85995 376.74961,988 378.17194,988 c 0.59715,0 48.98625,-32.92764 107.53133,-73.17254 z m 435.47495,6.78503 C 949.1302,885.37435 972,855.13991 972,854.42484 972,853.10021 753.25016,702.13969 750.15956,701.33148 c -1.26531,-0.33089 -14.64975,16.37009 -52.92392,66.03799 -28.71696,37.26561 -51.00309,67.06308 -50.71327,67.8057 0.77395,1.98314 220.74847,152.91122 222.40585,152.59625 0.78552,-0.14928 24.29802,-29.9208 52.25,-66.15893 z M 389.24503,728.85211 C 452.35479,685.48345 504.56475,650 505.26716,650 c 0.70241,0 27.29128,33.75 59.08638,75 31.79511,41.25 58.36085,75 59.03499,75 0.67415,0 27.25696,-33.76637 59.07293,-75.03637 31.81597,-41.27 58.13214,-75.21246 58.48039,-75.42769 0.34825,-0.21523 48.7663,32.72084 107.59567,73.19128 58.82936,40.47043 107.97498,73.79035 109.21248,74.04427 1.2375,0.25391 2.25,0.0151 2.25,-0.53079 0,-0.93618 -80.88505,-223.91605 -84.51644,-232.9907 -0.9354,-2.3375 -2.32307,-4.25 -3.08372,-4.25 -0.76065,0 -29.23102,10.125 -63.26747,22.5 L 747.2479,604 618.97469,604 490.70148,604 425.7728,580.36365 c -55.13936,-20.07269 -65.13215,-23.42733 -66.27828,-22.25 -2.13435,2.19245 -91.77669,249.70864 -91.08715,251.50555 0.55419,1.44419 0.87589,1.42896 3.35282,-0.15875 1.50689,-0.96593 54.37507,-37.23968 117.48484,-80.60834 z M 651.09271,552.42743 c 64.9394,-9.32747 122.34066,-46.16167 158.87439,-101.94915 8.11045,-12.38478 19.21086,-35.69281 24.30832,-51.0413 C 850.35548,351.01982 849.65656,297.06472 832.33964,250 802.23841,168.18947 728.26761,110.91105 641.08553,101.9046 625.13997,100.25733 596.84643,101.25168 581,104.01625 c -58.45116,10.19741 -110.13543,42.18962 -145.00661,89.75808 -39.4927,53.87278 -53.20607,122.96376 -37.34362,188.14532 7.05865,29.00519 20.81325,57.80777 39.67232,83.07508 9.08197,12.16799 31.42006,34.47908 43.75801,43.70513 34.82779,26.04345 73.80771,41.06244 117.60301,45.31252 12.12266,1.17643 37.66738,0.3889 51.4096,-1.58495 z"
       id="path3084"
       inkscape:connector-curvature="0" />
    <path
       style="fill:#232b41"
       d="m 572.5,1199 c -7.14204,-0.3926 -9.24638,-0.7241 -6,-0.9451 3.45075,-0.235 1.43672,-0.5887 -6.5,-1.1415 -42.79902,-2.981 -86.32044,-10.6697 -127,-22.4363 C 276.89412,1129.323 144.65535,1020.829 69.198864,876 31.417703,803.48394 7.9778641,719.91268 3.2586185,640.89987 2.6886492,631.35706 2.3963292,629.65205 1.9899245,633.5 0.94630884,643.38124 -0.16399981,599.82583 0.64522837,580.75 1.1382084,569.12904 1.6711303,563.48157 1.9899245,566.5 c 0.4064047,3.84795 0.6987247,2.14294 1.268694,-7.39987 C 5.6089232,519.74974 13.722496,473.79627 25.522935,433 70.677016,276.89412 179.17102,144.65535 324,69.198864 396.51606,31.417703 480.08732,7.9778641 559.10013,3.2586185 568.64294,2.6886492 570.34795,2.3963292 566.5,1.9899245 c -9.88124,-1.04361566 33.67417,-2.15392431 52.75,-1.34469613 11.62096,0.49298003 17.26843,1.02590193 14.25,1.34469613 -3.84795,0.4064047 -2.14294,0.6987247 7.39987,1.268694 C 680.25026,5.6089232 726.20373,13.722496 767,25.522935 923.10588,70.677016 1055.3447,179.17102 1130.8011,324 c 37.7812,72.51606 61.221,156.08732 65.9403,235.10013 0.57,9.54281 0.8623,11.24782 1.2687,7.39987 1.0436,-9.88124 2.1539,33.67417 1.3447,52.75 -0.493,11.62096 -1.0259,17.26843 -1.3447,14.25 -0.4064,-3.84795 -0.6987,-2.14294 -1.2687,7.39987 C 1194.3911,680.25026 1186.2775,726.20373 1174.4771,767 1129.323,923.10588 1020.829,1055.3447 876,1130.8011 c -72.84016,37.9501 -152.64617,60.3066 -236,66.1123 -7.71016,0.537 -9.85224,0.9058 -6.5,1.119 7.99074,0.5083 -17.23876,1.7035 -34.5,1.6343 -8.525,-0.034 -20.45,-0.3341 -26.5,-0.6667 z m 198.26059,-190.0531 0.26058,-42.55314 -73.00313,-50.19688 C 657.86632,888.58859 624.27944,866 623.38053,866 c -0.89891,0 -36.45226,23.93273 -79.00745,53.18385 L 467,972.3677 l 0,39.1495 c 0,21.5322 0.30145,39.4509 0.66988,39.8193 0.36844,0.3685 68.65594,0.556 151.75,0.4167 L 770.5,1051.5 l 0.26059,-42.5531 z M 484.80212,916.43248 c 63.54496,-43.62718 107.3928,-74.3738 109.94788,-77.09675 2.41332,-2.57187 4.25,-5.50706 4.25,-6.7919 0,-1.45491 -17.71796,-25.24976 -49.6309,-66.65325 -27.297,-35.41482 -50.1345,-64.72335 -50.75,-65.13008 -0.61551,-0.40672 -1.72748,-0.51574 -2.47104,-0.24226 -3.05757,1.12454 -221.34296,151.82609 -221.85788,153.16795 -0.30776,0.802 0.48404,2.8882 1.75954,4.636 7.01031,9.60608 99.50127,129.29562 100.39083,129.9125 0.5827,0.40408 1.42041,0.74158 1.86157,0.75 0.44117,0.008 48.36617,-32.64007 106.5,-72.55221 z M 871.69495,986.75 c 7.0019,-7.70915 100.69361,-130.60279 100.74361,-132.14347 0.0557,-1.71722 -45.22995,-33.27273 -214.10634,-149.19147 -5.94104,-4.07799 -8.59402,-5.36793 -9.73122,-4.73152 -0.85989,0.48122 -24.30111,30.33678 -52.09159,66.3457 -36.55725,47.36826 -50.45644,66.08346 -50.26878,67.68671 0.20069,1.71464 25.25724,19.40929 110.75937,78.21701 60.775,41.80058 110.98406,76.01591 111.57569,76.03405 0.59162,0.0181 1.99529,-0.97951 3.11926,-2.21701 z M 387.3278,731.08841 c 63.97211,-43.98276 116.82559,-80.1081 117.45219,-80.27853 0.6266,-0.17043 27.17311,33.43938 58.99225,74.68848 31.81914,41.2491 58.55044,75.13268 59.40289,75.29685 1.02903,0.19817 21.11895,-25.09202 59.77792,-75.25143 36.94049,-47.92972 58.65189,-75.29596 59.38747,-74.85526 0.63771,0.38207 49.15491,33.68345 107.816,74.00307 C 908.8176,765.01122 957.7551,798 958.90652,798 960.05793,798 961,797.52682 961,796.94849 961,795.94444 878.27078,567.99861 875.45708,561.25 c -0.74527,-1.7875 -1.88377,-3.25 -2.53,-3.25 -0.64624,0 -29.1317,10.2375 -63.30103,22.75 L 747.5,603.5 l -128.5,0 -128.5,0 -64.69564,-23.73948 c -35.5826,-13.05671 -65.31568,-23.50154 -66.07351,-23.21073 -1.90289,0.73021 -93.2069,251.76726 -92.36631,253.95781 0.38243,0.99659 1.27252,1.46191 2.15133,1.12468 0.82446,-0.31637 53.83983,-36.56111 117.81193,-80.54387 z M 648,553.55082 C 697.62406,546.88637 740.81539,526.1346 776.53733,491.79356 813.67046,456.0959 836.55537,411.61028 844.59366,359.5 846.96311,344.13938 846.9532,311.57244 844.57433,296 832.78679,218.83708 786.07989,155.46497 716.26253,121.90606 702.83592,115.45233 679.62409,107.78772 663.95851,104.63513 598.21269,91.404234 530.4187,107.84556 476.90151,150 c -44.75363,35.25155 -75.36856,89.34384 -83.48143,147.5 -2.21498,15.87776 -2.1959,45.98732 0.0386,61 7.63561,51.29962 29.07514,94.22955 64.95715,130.06841 17.03645,17.01597 30.99243,27.58739 51.08511,38.69608 24.55508,13.57583 53.78911,23.06037 81.99903,26.60336 11.39816,1.43154 44.87887,1.24367 56.5,-0.31703 z"
       id="path3082"
       inkscape:connector-curvature="0" />
  </g>
</svg>
