<?xml version="1.0" encoding="UTF-8" standalone="no"?>
<!-- Created with Inkscape (http://www.inkscape.org/) -->

<svg
   xmlns:dc="http://purl.org/dc/elements/1.1/"
   xmlns:cc="http://creativecommons.org/ns#"
   xmlns:rdf="http://www.w3.org/1999/02/22-rdf-syntax-ns#"
   xmlns:svg="http://www.w3.org/2000/svg"
   xmlns="http://www.w3.org/2000/svg"
   xmlns:sodipodi="http://sodipodi.sourceforge.net/DTD/sodipodi-0.dtd"
   xmlns:inkscape="http://www.inkscape.org/namespaces/inkscape"
   version="1.1"
   width="48.000004"
   height="48.000004"
   id="svg2997"
   inkscape:version="0.48.1 r9760"
   sodipodi:docname="charge.svg">
  <sodipodi:namedview
     pagecolor="#ffffff"
     bordercolor="#666666"
     borderopacity="1"
     objecttolerance="10"
     gridtolerance="10"
     guidetolerance="10"
     inkscape:pageopacity="0"
     inkscape:pageshadow="2"
     inkscape:window-width="1600"
     inkscape:window-height="876"
     id="namedview3103"
     showgrid="false"
     fit-margin-top="0"
     fit-margin-left="0"
     fit-margin-right="0"
     fit-margin-bottom="0"
     inkscape:zoom="0.28333333"
     inkscape:cx="600.05137"
     inkscape:cy="599.98162"
     inkscape:window-x="0"
     inkscape:window-y="24"
     inkscape:window-maximized="1"
     inkscape:current-layer="svg2997" />
  <metadata
     id="metadata3003">
    <rdf:RDF>
      <cc:Work
         rdf:about="">
        <dc:format>image/svg+xml</dc:format>
        <dc:type
           rdf:resource="http://purl.org/dc/dcmitype/StillImage" />
        <dc:title />
      </cc:Work>
    </rdf:RDF>
  </metadata>
  <defs
     id="defs3001" />
  <g
     transform="matrix(0.03999658,0,0,0.04000123,6.8944386e-4,0.00188882)"
     id="g3007">
    <path
       d="m 551.5,1198.8566 c -78.33573,-4.6124 -161.10301,-28.5226 -234,-67.5991 -54.41685,-29.1701 -98.01702,-61.6474 -142.56358,-106.1939 C 130.38987,980.51702 97.912605,936.91685 68.74246,882.5 34.699268,818.99249 9.5389166,739.04586 3.079761,673.85778 -1.0372944,632.307 -1.0372944,567.693 3.079761,526.14222 9.5389166,460.95414 34.699268,381.00751 68.74246,317.5 97.912605,263.08315 130.38987,219.48298 174.93642,174.93642 219.48298,130.38987 263.08315,97.912605 317.5,68.74246 381.00751,34.699268 460.95414,9.5389166 526.14222,3.079761 c 41.55078,-4.1170554 106.16478,-4.1170554 147.71556,0 65.18808,6.4591556 145.13471,31.619507 208.64222,65.662699 54.41685,29.170145 98.01702,61.64741 142.5636,106.19396 44.5465,44.54656 77.0238,88.14673 106.1939,142.56358 34.0432,63.50751 59.2036,143.45414 65.6627,208.64222 4.1171,41.55078 4.1171,106.16478 0,147.71556 -6.4591,65.18808 -31.6195,145.13471 -65.6627,208.64222 -29.1701,54.41685 -61.6474,98.01702 -106.1939,142.5636 -44.54658,44.5465 -88.14675,77.0238 -142.5636,106.1939 -63.50751,34.0432 -143.45414,59.2036 -208.64222,65.6627 -30.39189,3.0114 -88.48563,3.9308 -122.35778,1.9364 z M 768,918.55902 c 0,-82.52209 0.35582,-131.6609 0.95607,-132.03187 0.52584,-0.32498 1.62402,0.43596 2.44042,1.69098 0.81639,1.25503 22.16519,59.12339 47.44176,128.59637 25.27658,69.47297 46.13818,126.4953 46.35911,126.7162 0.38358,0.3836 136.52074,-48.91542 137.33984,-49.73452 0.447,-0.44705 -151.9664,-419.55871 -152.92441,-420.51673 -0.34057,-0.34057 -22.55528,7.34057 -49.36601,17.06921 L 751.5,608.03709 618.83645,608.01854 486.17289,608 438.25488,590.5 c -26.35491,-9.625 -48.39474,-17.5 -48.9774,-17.5 -0.58266,0 -2.90966,5.0625 -5.17112,11.25 -87.70172,239.95727 -148.76073,409.35685 -147.75428,409.92332 1.91733,1.07915 134.01215,49.05478 135.45885,49.19748 0.86389,0.085 17.11227,-43.24 47.64905,-127.05296 25.48597,-69.95018 46.63511,-127.66268 46.99809,-128.25 C 466.82105,787.48053 467.76648,787 468.55902,787 469.80636,787 470,804.67143 470,918.5 l 0,131.5 149,0 149,0 0,-131.44098 z M 641.5,552.00466 c 43.58822,-4.7411 83.2203,-20.9 117.42739,-47.87782 12.35187,-9.74144 29.31348,-27.28838 39.44462,-40.80581 29.43064,-39.26768 44.54855,-84.6328 44.60847,-133.85904 0.074,-60.78804 -22.74539,-116.19969 -65.45597,-158.94483 C 743.8736,136.83902 703.47873,116.09496 654.5,107.34013 c -14.44992,-2.58289 -56.74801,-2.56224 -71,0.0346 -49.40412,9.00207 -89.35775,29.52918 -123.07997,63.23521 -33.71789,33.7017 -55.54008,76.66759 -62.98288,124.00749 -3.41483,21.72009 -2.9108,53.85587 1.18234,75.38252 6.83334,35.93785 22.71524,70.55145 45.42459,99 7.79445,9.7643 27.41652,29.23571 36.95592,36.67217 33.13464,25.83021 74.5239,42.19264 118,46.649 7.7779,0.79725 34.05994,0.60152 42.5,-0.31651 z"
       id="path3021"
       style="fill:#cecfd4"
       inkscape:connector-curvature="0" />
    <path
       d="m 552,1198.4636 c -99.03169,-6.7785 -200.01676,-41.774 -285.5,-98.9377 C 134.20953,1011.0617 42.305933,873.95735 11.077741,718.47976 1.0872436,668.7395 -2.282155,611.06329 1.4819519,554.22234 8.1656395,453.29344 42.716032,352.87213 100.47408,266.5 188.93826,134.20953 326.04265,42.305933 481.52024,11.077741 c 73.8513,-14.8332802 163.10822,-14.8332802 236.95952,0 C 898.37034,47.209364 1052.5581,164.40721 1135.4289,328 c 50.3977,99.48873 70.7545,202.02504 63.0891,317.77766 C 1184.8705,851.86676 1058.9226,1040.74 872,1135.4289 c -60.58723,30.6915 -119.84971,49.4858 -186.22234,59.058 -36.21411,5.2227 -91.5441,6.8675 -133.77766,3.9767 z M 769,920 c 0.3299,-86.10514 0.84019,-130.46436 1.5,-130.39522 0.55,0.0576 21.76793,57.14056 47.15096,126.85096 25.38302,69.71039 46.55034,127.14556 47.03849,127.63366 0.888,0.888 136.44425,-47.82312 138.32845,-49.70728 C 1004.4469,992.95305 851.08691,572 849.1372,572 c -0.81073,0 -23.03717,7.875 -49.39208,17.5 L 751.82711,607 619.16355,607.00195 486.5,607.0039 438.3846,589.50195 C 411.92113,579.87588 389.78518,572 389.19361,572 c -0.59156,0 -1.39048,0.50953 -1.77537,1.13229 -2.23315,3.61332 -153.16878,420.51391 -152.49006,421.1941 0.45353,0.45452 31.58615,12.03251 69.18359,25.72891 53.32232,19.4248 68.6085,24.6322 69.49336,23.6736 0.62391,-0.6759 21.06665,-56.1289 45.42831,-123.2289 24.36166,-67.1 45.10428,-123.9125 46.09471,-126.25 0.99043,-2.3375 2.26677,-4.25 2.83631,-4.25 0.70874,0 1.03554,40.97405 1.03554,129.83333 0,71.40834 0.30147,130.13477 0.66992,130.50327 0.36846,0.3684 67.75596,0.5559 149.75,0.4167 L 768.5,1050.5 769,920 z M 641.14405,552.96386 C 747.49046,542.32359 831.40198,459.0886 842.94548,352.78941 844.39411,339.4496 844.21555,315.82293 842.56164,302 833.51308,226.3747 786.93498,160.67278 718.5,127.00168 686.3691,111.19277 655.25114,104 618.98823,104 c -34.8287,0 -67.78851,7.5272 -98.48823,22.49225 -23.56793,11.48855 -41.80689,24.60949 -61.04837,43.91764 -56.67848,56.87486 -78.62717,139.05715 -57.87352,216.69534 14.66498,54.86083 50.50029,103.23286 98.55995,133.0404 29.18588,18.10166 65.52277,30.2323 99.36194,33.17081 9.24402,0.80273 32.02476,0.60985 41.64405,-0.35258 z"
       id="path3019"
       style="fill:#999da7"
       inkscape:connector-curvature="0" />
    <path
       d="m 566,1199.4119 c -57.14249,-4.5776 -100.13056,-12.497 -146,-26.8965 C 341.48571,1147.868 270.68344,1108.2005 206,1052.6204 192.47805,1041.0015 158.99851,1007.522 147.37959,994 69.403431,903.25236 21.591913,798.06903 5.558707,682 1.1590446,650.14957 0.54385135,640.09029 0.54385135,600 c 0,-40.09029 0.61519325,-50.14957 5.01485565,-82 C 21.591913,401.93097 69.403431,296.74764 147.37959,206 158.99851,192.47805 192.47805,158.99851 206,147.37959 296.74764,69.403431 401.93097,21.591913 518,5.558707 c 31.85043,-4.3996624 41.90971,-5.01485565 82,-5.01485565 40.09029,0 50.14957,0.61519325 82,5.01485565 116.06903,16.033206 221.25236,63.844724 312,141.820883 13.522,11.61892 47.0015,45.09846 58.6204,58.62041 77.9762,90.74764 125.7877,195.93097 141.8209,312 4.3997,31.85043 5.0148,41.90971 5.0148,82 0,40.09029 -0.6151,50.14957 -5.0148,82 -16.0332,116.06903 -63.8447,221.25236 -141.8209,312 -11.6189,13.522 -45.0984,47.0015 -58.6204,58.6204 -85.19189,73.2023 -183.04622,119.8349 -290.26222,138.3247 -38.53882,6.6462 -56.45438,8.2121 -97.73778,8.5429 -19.525,0.1564 -37.525,0.1222 -40,-0.076 z M 768.8,1050.8 c 0.92037,-0.9204 1.2137,-31.3882 1.25881,-130.75 0.044,-96.91408 0.34452,-129.12987 1.19299,-127.88227 0.6238,0.91725 21.64673,58.06725 46.71763,127 38.48403,105.81237 45.89082,125.37107 47.55701,125.58117 1.08546,0.1369 32.57356,-10.9042 69.97356,-24.5357 l 68,-24.78461 -0.066,-2.9643 C 1003.3973,990.83393 969.34345,896.125 927.75857,782 840.03446,541.25112 851.0317,571 849.75841,571 c -0.56518,0 -22.67954,7.87588 -49.14301,17.50195 L 752.5,606.0039 l -133.5,0 -133.5,0 -48.37122,-17.59501 c -40.14078,-14.6012 -48.58667,-17.3665 -49.63741,-16.25196 -1.74197,1.84772 -153.66091,419.72539 -153.28954,421.6477 0.34391,1.78013 134.96941,51.37897 138.29817,50.95197 1.69986,-0.2181 8.9033,-19.1948 48,-126.45129 25.3,-69.40708 46.3375,-126.51958 46.75,-126.91667 0.4125,-0.39708 0.75,57.53803 0.75,128.74469 0,99.36297 0.27903,129.74567 1.2,130.66667 1.74436,1.7444 297.85564,1.7444 299.6,0 z M 651.09271,552.42743 c 80.66247,-11.58583 148.65391,-65.67152 178.49431,-141.98827 5.46947,-13.98818 10.65753,-33.6141 13.0691,-49.43916 2.4467,-16.05557 2.44607,-48.30728 -10e-4,-64 C 834.56204,245.10702 811.16689,199.90635 774.38201,165.09322 740.48325,133.01151 699.66572,113.1668 651.5,105.35034 c -15.42313,-2.50291 -49.67114,-2.49415 -65,0.0166 -56.62911,9.27549 -104.95748,36.12607 -139.73175,77.63304 -27.6443,32.99656 -44.9022,71.46629 -51.36583,114.5 -2.4347,16.20982 -2.47384,46.58845 -0.0805,62.5 16.07491,106.8711 100.44927,185.65352 208.1781,194.38098 9.53816,0.77272 36.24389,-0.32348 47.59271,-1.95355 z"
       id="path3017"
       style="fill:#7d818e"
       inkscape:connector-curvature="0" />
    <path
       d="M 571,1199.3882 C 448.69245,1192.359 337.08146,1152.0511 240.5,1080.0294 166.87374,1025.1256 105.99135,952.46085 64.559628,870.03987 29.61603,800.52586 10.832199,734.83481 2.3558453,652.5 c -2.46055316,-23.90051 -2.46055316,-81.09949 0,-105 C 10.832199,465.16519 29.61603,399.47414 64.559628,329.96013 122.10375,215.48643 215.48643,122.10375 329.96013,64.559628 399.47414,29.61603 465.16519,10.832199 547.5,2.3558453 c 23.90051,-2.46055316 81.09949,-2.46055316 105,0 82.33481,8.4763537 148.02586,27.2601847 217.53987,62.2037827 114.4737,57.544122 207.85633,150.926802 265.40053,265.400502 34.9436,69.51401 53.7274,135.20506 62.2038,217.53987 2.4605,23.90051 2.4605,81.09949 0,105 -8.4764,82.33481 -27.2602,148.02586 -62.2038,217.53987 -57.5442,114.4737 -150.92683,207.85633 -265.40053,265.40053 -68.39148,34.3793 -134.06859,53.41 -212.53987,61.5858 -19.21964,2.0025 -69.07018,3.3637 -86.5,2.362 z M 770,921.5 c 0.46633,-121.24681 0.60995,-129.76434 2.13294,-126.5 0.89812,1.925 21.76252,58.85 46.36533,126.5 24.60282,67.65 45.10043,123.3974 45.55024,123.8832 0.76535,0.8265 138.39839,-48.61915 140.32059,-50.41116 1.1293,-1.05279 -152.44489,-423.05522 -154.20486,-423.73551 -0.73466,-0.28398 -23.23466,7.42997 -50,17.14212 L 751.5,606.03709 619,606.02049 486.5,606.0039 438.20622,588.43706 c -26.56158,-9.66177 -49.01003,-17.42514 -49.88544,-17.25195 -1.13589,0.22472 -23.57268,60.71512 -78.3548,211.24738 -42.21973,116.01288 -76.5729,211.42829 -76.34037,212.03426 0.50748,1.32245 139.05171,51.85075 140.20906,51.13545 0.4435,-0.2741 21.44689,-57.22174 46.67419,-126.55029 C 445.73617,849.72336 466.74194,793 467.18835,793 467.63476,793 468,850.975 468,921.83333 c 0,70.85834 0.30146,129.13477 0.6699,129.50327 0.36845,0.3684 68.20595,0.5559 150.75,0.4166 L 769.5,1051.5 770,921.5 z M 652.5,552.56046 C 750.69279,537.31265 827.19492,461.20704 842.5455,363.5 c 2.23155,-14.20397 2.97886,-41.55516 1.53054,-56.01775 C 839.61126,262.89791 822.41279,220.76345 794.69345,186.5 785.39054,175.00082 766.17243,156.58937 754.11905,147.62868 721.10107,123.08252 682.59769,108.19325 641.03599,103.89941 625.21038,102.26443 596.96656,103.268 581,106.03262 536.03821,113.81779 495.78519,134.12048 463.09732,165.5 c -36.89354,35.41685 -59.96446,79.83154 -67.78738,130.5 -2.16898,14.0483 -2.44727,48.88382 -0.4993,62.5 4.08608,28.56145 12.86384,55.11796 26.27725,79.5 35.43868,64.41818 100.91126,107.92375 174.41211,115.89429 12.2413,1.32746 44.76258,0.56645 57,-1.33383 z"
       id="path3015"
       style="fill:#737886"
       inkscape:connector-curvature="0" />
    <path
       d="M 567,1198.9722 C 446.48394,1191.0866 334.11997,1150.0717 240.70771,1079.8695 197.19677,1047.1696 152.83036,1002.8032 120.13054,959.29229 60.88884,880.46429 21.257716,785.40131 7.0305877,688 c -9.194471,-62.94689 -9.194471,-113.05311 0,-176 C 21.257716,414.59869 60.88884,319.53571 120.13054,240.70771 152.83036,197.19677 197.19677,152.83036 240.70771,120.13054 319.53571,60.88884 414.59869,21.257716 512,7.0305877 c 62.94689,-9.194471 113.05311,-9.194471 176,0 97.40131,14.2271283 192.46429,53.8582523 271.29229,113.0999523 43.51091,32.69982 87.87731,77.06623 120.57721,120.57717 59.2417,78.828 98.8728,173.89098 113.0999,271.29229 9.1945,62.94689 9.1945,113.05311 0,176 -14.2271,97.40131 -53.8582,192.46429 -113.0999,271.29229 -32.6999,43.51091 -77.0663,87.87731 -120.57721,120.57721 -60.91877,45.7823 -131.10239,79.7648 -205.73409,99.6151 -59.4561,15.8139 -130.03208,23.1862 -186.5582,19.4876 z M 769.75377,922.75 c 0.14837,-75.27167 0.62694,-128.75 1.15218,-128.75 0.49412,0 1.33617,1.2375 1.87122,2.75 6.81069,19.25273 89.66985,246.2168 90.3558,247.4985 0.51557,0.9633 1.45949,1.7515 2.09761,1.7515 1.29863,0 135.27162,-48.66444 138.01942,-50.13427 0.9625,-0.51486 1.75,-1.46108 1.75,-2.10272 0,-2.53144 -153.51158,-422.74534 -154.58714,-423.15807 -0.632,-0.24253 -22.69594,7.50965 -49.03097,17.22705 L 753.5,605.5 l -134.5,0 -134.5,0 -48,-17.78136 c -46.02551,-17.04992 -48.0617,-17.70442 -49.5,-15.91096 -0.825,1.02872 -35.91389,96.48723 -77.97531,212.13003 -68.30591,187.79884 -76.30128,210.38687 -74.84623,211.45083 0.896,0.65517 32.36367,12.36336 69.92817,26.01826 45.75578,16.6325 68.75644,24.5386 69.68474,23.953 0.76211,-0.4807 21.90633,-57.23334 46.98715,-126.11692 C 445.85934,850.35929 466.74451,794 467.19001,794 467.6355,794 468,851.75 468,922.33333 c 0,70.58334 0.30146,128.63477 0.6699,129.00327 0.36845,0.3684 68.20595,0.5559 150.75,0.4166 L 769.5,1051.5 769.75377,922.75 z M 643.78941,553.94224 c 62.4559,-6.80325 119.59603,-39.68613 157.16027,-90.44224 21.6071,-29.19514 34.82563,-60.20202 41.56518,-97.5 2.64271,-14.62533 3.17223,-49.10757 1.01472,-66.07973 C 837.19322,250.07477 814.9531,204.9531 779,169 743.82481,133.82481 700.80866,112.17631 651.74722,104.9582 c -18.30778,-2.69352 -47.22308,-2.68815 -65.57742,0.0122 -81.6066,12.00611 -149.64599,66.83933 -179.09868,144.33634 -9.06565,23.85387 -13.09846,45.26065 -13.80798,73.29484 -0.53927,21.30757 0.38272,33.50405 3.84769,50.89845 19.01872,95.47552 99.4608,169.55585 195.88917,180.3973 11.00681,1.2375 39.60902,1.2628 50.78941,0.0449 z"
       id="path3013"
       style="fill:#545a6b"
       inkscape:connector-curvature="0" />
    <path
       d="m 573,1199.3584 c -5.775,-0.2036 -11.4,-0.7718 -12.5,-1.2628 -1.1,-0.4909 -8.45114,-1.397 -16.33588,-2.0135 C 474.12096,1190.606 395.1354,1167.9347 329.39806,1134.4375 270.5555,1104.4536 220.80797,1067.989 173.82393,1020.4027 135.5887,981.67729 106.13671,942.99542 79.563297,896.60194 37.787642,823.66748 10.165868,735.75226 3.9178519,655.83588 3.3014084,647.95114 2.2904375,640.43849 1.67125,639.14108 c -1.57185913,-3.29358 -1.57185913,-74.98858 0,-78.28216 0.6191875,-1.29741 1.6301584,-8.81006 2.2466019,-16.6948 C 8.5757896,484.58593 25.804927,417.77821 51.799035,358.5 90.205013,270.91717 151.25469,191.86261 227.38317,131.13228 294.93759,77.241773 374.22189,38.419747 458.5,17.964556 486.5221,11.163294 518.44665,5.9284936 544.16412,3.9178519 c 7.88474,-0.6164435 15.39739,-1.6274144 16.6948,-2.2466019 3.29358,-1.57185913 74.98858,-1.57185913 78.28216,0 1.29741,0.6191875 8.81006,1.6301584 16.6948,2.2466019 70.04316,5.4761086 149.02872,28.1474561 214.76606,61.6446371 58.84256,29.983863 108.59009,66.448481 155.57416,114.034841 38.2352,38.72538 67.6872,77.40725 94.2606,123.80073 41.7757,72.93446 69.3974,160.84968 75.6454,240.76606 0.6165,7.88474 1.6275,15.39739 2.2466,16.6948 1.5719,3.29358 1.5719,74.98858 0,78.28216 -0.6191,1.29741 -1.6301,8.81006 -2.2466,16.6948 -4.6579,59.57819 -21.887,126.38591 -47.8811,185.66412 -38.406,87.58283 -99.4557,166.6374 -175.58417,227.3677 -67.55442,53.8905 -146.83872,92.7126 -231.11683,113.1677 -28.10264,6.8209 -60.08944,12.0599 -85.66412,14.0307 -7.88474,0.6076 -15.08713,1.4975 -16.00532,1.9775 -1.83031,0.9568 -50.0626,1.9057 -66.83056,1.3148 z M 769.8,1051.8 c 0.9199,-0.9199 1.21967,-30.9723 1.28426,-128.75 0.0817,-123.73941 0.13811,-127.4305 1.8867,-123.55 0.99134,2.2 21.48906,58.225 45.55048,124.5 24.06142,66.275 44.29501,121.0915 44.96353,121.8145 0.99226,1.0731 13.96175,-3.3133 70.61527,-23.8827 38.16987,-13.8584 69.99156,-25.74532 70.71486,-26.41529 1.0737,-0.99454 -8.89662,-29.28079 -54.3232,-154.11731 C 919.89085,757.30464 885.15144,661.8375 873.29322,629.25 856.03358,581.81891 851.38505,570 849.98945,570 c -0.95884,0 -23.40296,7.875 -49.8758,17.5 L 751.9812,605 618.97996,605 485.97871,605 438,587.5 C 411.61171,577.875 389.33422,570 388.49447,570 c -0.83976,0 -2.20552,1.4625 -3.03504,3.25 -0.82952,1.7875 -35.64823,97.075 -77.37491,211.75 -48.41845,133.06561 -75.58192,209.02094 -75.07959,209.93988 0.43291,0.79194 32.18054,12.85422 70.55029,26.80512 56.87899,20.6806 69.99099,25.1241 70.99667,24.0601 0.67841,-0.7178 21.36178,-56.6551 45.96306,-124.3051 24.60127,-67.65 45.11088,-123.675 45.57691,-124.5 0.46663,-0.82607 0.86098,55.80656 0.87773,126.05 0.0233,97.8381 0.30994,127.8295 1.23041,128.75 1.74441,1.7444 299.85559,1.7444 301.6,0 z M 652,553.46988 C 716.6424,543.51369 772.91328,507.5751 808.6237,453.43884 848.55191,392.90851 856.96913,314.97176 830.87448,247.41429 802.75314,174.60985 739.22712,121.30545 662.5,106.13202 630.56906,99.817405 592.56424,101.0771 561,109.49631 458.46608,136.84544 388.04961,232.04932 392.35967,337.5 c 1.35568,33.16839 8.44155,61.10217 23.08366,91 12.0868,24.68012 26.21147,44.16943 45.69072,63.04435 38.51524,37.32034 85.96954,58.8257 140.86595,63.8377 9.10822,0.83157 39.80878,-0.34252 50,-1.91217 z"
       id="path3011"
       style="fill:#3b4256"
       inkscape:connector-curvature="0" />
    <path
       d="m 572.5,1199 c -7.14204,-0.3926 -9.24638,-0.7241 -6,-0.9451 3.45075,-0.235 1.43672,-0.5887 -6.5,-1.1415 -42.79902,-2.981 -86.32044,-10.6697 -127,-22.4363 C 276.89412,1129.323 144.65535,1020.829 69.198864,876 31.417703,803.48394 7.9778641,719.91268 3.2586185,640.89987 2.6886492,631.35706 2.3963292,629.65205 1.9899245,633.5 0.94630884,643.38124 -0.16399981,599.82583 0.64522837,580.75 1.1382084,569.12904 1.6711303,563.48157 1.9899245,566.5 c 0.4064047,3.84795 0.6987247,2.14294 1.268694,-7.39987 C 5.6089232,519.74974 13.722496,473.79627 25.522935,433 70.677016,276.89412 179.17102,144.65535 324,69.198864 396.51606,31.417703 480.08732,7.9778641 559.10013,3.2586185 568.64294,2.6886492 570.34795,2.3963292 566.5,1.9899245 c -9.88124,-1.04361566 33.67417,-2.15392431 52.75,-1.34469613 11.62096,0.49298003 17.26843,1.02590193 14.25,1.34469613 -3.84795,0.4064047 -2.14294,0.6987247 7.39987,1.268694 C 680.25026,5.6089232 726.20373,13.722496 767,25.522935 923.10588,70.677016 1055.3447,179.17102 1130.8011,324 c 37.7812,72.51606 61.221,156.08732 65.9403,235.10013 0.57,9.54281 0.8623,11.24782 1.2687,7.39987 1.0436,-9.88124 2.1539,33.67417 1.3447,52.75 -0.493,11.62096 -1.0259,17.26843 -1.3447,14.25 -0.4064,-3.84795 -0.6987,-2.14294 -1.2687,7.39987 C 1194.3911,680.25026 1186.2775,726.20373 1174.4771,767 1129.323,923.10588 1020.829,1055.3447 876,1130.8011 c -72.84016,37.9501 -152.64617,60.3066 -236,66.1123 -7.71016,0.537 -9.85224,0.9058 -6.5,1.119 7.99074,0.5083 -17.23876,1.7035 -34.5,1.6343 -8.525,-0.034 -20.45,-0.3341 -26.5,-0.6667 z M 769.41821,1053.393 C 770.84905,1052.8439 771,1040.7244 771,926.39301 771,856.87686 771.36801,800 771.81781,800 c 0.44979,0 20.75646,54.7875 45.12592,121.75 24.36946,66.9625 44.71727,122.5375 45.21737,123.5 0.5001,0.9625 1.87041,1.75 3.04514,1.75 1.91046,0 134.76667,-47.92509 139.04376,-50.15712 0.9625,-0.50229 1.7405,-1.90991 1.7289,-3.12806 C 1005.9674,992.49667 971.38498,896.55 929.1292,780.5 876.75981,636.67427 851.81907,569.40553 850.78825,569.20325 c -0.83176,-0.16321 -23.28688,7.71179 -49.90027,17.5 L 752.5,604.5 l -133,0 -133,0 -48.6154,-17.75 C 411.14613,576.9875 388.56596,569 387.70645,569 c -0.98579,0 -2.35893,2.1229 -3.71924,5.75 C 368.48388,616.08763 232,992.69285 232,994.13416 c 0,1.28729 1.15942,2.45233 3.35235,3.3686 C 245.51586,1001.7493 371.34421,1047 372.98916,1047 c 1.13907,0 2.53265,-1.1514 3.32846,-2.75 0.75294,-1.5125 21.12045,-57.0875 45.26115,-123.5 C 445.71946,854.3375 465.81498,800 466.23547,800 466.65596,800 467,856.8875 467,926.41667 c 0,100.19763 0.25925,126.52123 1.25,126.92103 1.80126,0.7268 299.27591,0.7815 301.16821,0.055 z M 646.5,554.85836 c 37.81032,-4.31485 77.42152,-20.18137 108.5,-43.46037 48.96994,-36.6804 80.35389,-89.5655 89.54839,-150.89799 2.43721,-16.25756 2.47173,-46.51306 0.0718,-62.95001 C 831.17564,205.46823 764.50859,130.97718 675.35981,108.42532 654.08821,103.04427 642.16956,101.60398 619,101.6146 c -23.2281,0.0106 -35.51183,1.5088 -56.5,6.89086 -17.13377,4.39368 -27.03091,8.08996 -44.23451,16.52026 C 449.63983,158.65444 402.92905,224.61697 392.94273,302 c -1.56685,12.14131 -1.56041,41.69945 0.0118,54 9.85642,77.11618 56.70337,143.15243 125.54551,176.97107 40.17863,19.73772 82.8691,27.03755 128,21.88729 z"
       id="path3009"
       style="fill:#232b41"
       inkscape:connector-curvature="0" />
  </g>
</svg>
